<?xml version="1.0" standalone="no"?>
<!DOCTYPE svg PUBLIC "-//W3C//DTD SVG 20010904//EN"
 "http://www.w3.org/TR/2001/REC-SVG-20010904/DTD/svg10.dtd">
<svg version="1.0" xmlns="http://www.w3.org/2000/svg"
 width="804.000000pt" height="1280.000000pt" viewBox="0 0 804.000000 1280.000000"
 preserveAspectRatio="xMidYMid meet">
<metadata>
Created by potrace 1.15, written by Peter Selinger 2001-2017
</metadata>
<g transform="translate(0.000000,1280.000000) scale(0.100000,-0.100000)"
fill="#000000" stroke="none">
<path d="M4195 12773 c-282 -14 -570 -86 -740 -186 -146 -85 -250 -227 -274
-374 -6 -37 -23 -412 -37 -833 l-25 -765 -466 -1401 -467 -1401 -121 -12
c-362 -35 -661 -162 -918 -389 -246 -217 -405 -476 -462 -752 -24 -111 -24
-323 -2 -440 98 -506 505 -1025 1127 -1438 80 -53 148 -99 153 -102 4 -3 -51
-204 -122 -446 -71 -241 -238 -810 -371 -1264 -133 -454 -342 -1167 -465
-1585 -123 -418 -253 -863 -290 -989 -56 -191 -65 -230 -54 -241 19 -17 52
-26 65 -17 5 4 203 416 439 917 235 501 619 1315 852 1810 234 495 483 1025
555 1178 105 222 134 277 147 271 75 -30 307 -101 432 -133 438 -111 852 -132
1197 -61 488 101 824 383 966 811 160 482 92 983 -190 1405 l-64 97 18 31 c31
51 1469 2284 1530 2376 54 80 89 113 615 566 307 265 581 503 608 530 198 195
209 472 34 839 -198 412 -616 849 -1149 1199 -350 230 -817 456 -1206 585
-469 156 -939 232 -1315 214z"/>
</g>
</svg>
